<svg xmlns="http://www.w3.org/2000/svg" width="800" height="1100" viewBox="0 0 800 1100" role="img" aria-labelledby="title desc"><title id="title">C 디지털 가이드 캐릭터 벡터 시안</title><desc id="desc">은백색 라벤더 단발과 큰 파란 눈의 여성 치비가 비대칭 테크 케이프를 걸치고 시안 포인트를 사용해 길을 안내하는 전신 캐릭터</desc><defs><linearGradient id="bg" x1="0" y1="0" x2="1" y2="1"><stop stop-color="#ebf7ff"/><stop offset="1" stop-color="#eeeaff"/></linearGradient><linearGradient id="hair" x1="0" y1="0" x2="0" y2="1"><stop stop-color="#f0ecff"/><stop offset="1" stop-color="#b9b6dc"/></linearGradient><linearGradient id="cape" x1="0" y1="0" x2="1" y2="1"><stop stop-color="#263d77"/><stop offset="1" stop-color="#10699d"/></linearGradient><filter id="s"><feDropShadow dx="0" dy="16" stdDeviation="13" flood-color="#36517c" flood-opacity=".18"/></filter></defs><rect width="800" height="1100" rx="64" fill="url(#bg)"/><g fill="none" stroke="#72d7ef" stroke-width="3" opacity=".7"><path d="M68 225h130l41-41h75M607 198h123v120M83 878h93l50-50M592 892h133l32-31"/><circle cx="68" cy="225" r="10" fill="#72d7ef"/><circle cx="730" cy="198" r="10" fill="#72d7ef"/></g><g opacity=".85"><path d="M594 559l67-42 67 42-67 42z" fill="#abf5ff"/><path d="M594 559v78l67 42v-78z" fill="#58d5ed"/><path d="M728 559v78l-67 42v-78z" fill="#228bb5"/></g><ellipse cx="400" cy="1017" rx="224" ry="33" fill="#c7d9ed" opacity=".65"/><g filter="url(#s)" stroke="#172440" stroke-linecap="round" stroke-linejoin="round"><path d="M305 798l-24 174h121l10-168zM414 804l12 168h120l-33-174z" fill="#182f5c" stroke-width="8"/><path d="M268 966h145v48H263q-13-22 5-48zM415 966h145q18 26 5 48H407v-48z" fill="#f7fbff" stroke-width="8"/><!-- body --><path d="M251 529q-19 100 16 282h270q39-183 16-282-37-68-97-77H345q-60 10-94 77z" fill="#f7fcff" stroke-width="10"/><path d="M400 514v292" stroke="#62dff3" stroke-width="7"/><!-- asymmetric cape --><path d="M316 466q-97 51-101 274l142-49 45 119 161-3q2-177-84-342l-77 81z" fill="url(#cape)" stroke-width="10"/><path d="M301 504l58 207M489 501l-56 305" stroke="#82efff" stroke-width="7"/><path d="M301 730l135-48 79 125" fill="none" stroke="#82efff" stroke-width="5"/><!-- guide arm --><path d="M515 556q61-30 100-83l44 40q-52 84-130 107" fill="#f7fcff" stroke-width="10"/><path d="M614 476q6-38 36-42l31 9q16 9 2 23l-27 12 30 6q22 7 10 26l-41 20q-24 6-42-15z" fill="#ffe2d3" stroke-width="8"/><!-- other arm --><path d="M275 564q-55 30-65 110l57 16q13-49 48-71" fill="#f7fcff" stroke-width="10"/><path d="M210 668q-29-16-42 8l-12 32q-7 30 25 33l39-26z" fill="#ffe2d3" stroke-width="8"/><!-- neck face hair --><path d="M365 424v69q35 32 70 0v-69" fill="#ffdccc" stroke-width="8"/><path d="M239 308q0-175 165-175t164 175l-20 163q-50 54-144 50-99 0-145-54z" fill="url(#hair)" stroke-width="10"/><path d="M278 270q0-108 126-108t118 108v109q0 101-118 111-126-10-126-111z" fill="#ffe2d3" stroke-width="9"/><path d="M252 287q-8-128 152-144 158 13 152 146-43-54-86-64-10 66-76 65-61-3-86-65-13 38-56 62z" fill="url(#hair)" stroke-width="10"/><path d="M274 325q-42-25-42 20 7 56 49 39M529 325q42-25 42 20-7 56-49 39" fill="#ffe2d3" stroke-width="8"/><ellipse cx="348" cy="341" rx="34" ry="43" fill="#fff" stroke-width="7"/><ellipse cx="458" cy="341" rx="34" ry="43" fill="#fff" stroke-width="7"/><ellipse cx="352" cy="348" rx="19" ry="28" fill="#2879dd" stroke="none"/><ellipse cx="454" cy="348" rx="19" ry="28" fill="#2879dd" stroke="none"/><circle cx="358" cy="337" r="8" fill="#fff" stroke="none"/><circle cx="460" cy="337" r="8" fill="#fff" stroke="none"/><path d="M382 405q22 17 45 0" fill="none" stroke="#bf6b78" stroke-width="8"/><path d="M299 395h32m137 0h32" stroke="#f0a5a8" stroke-width="9" opacity=".7"/><circle cx="502" cy="224" r="25" fill="#80eaff" stroke-width="8"/><circle cx="502" cy="224" r="7" fill="#fff" stroke="none"/></g><text x="400" y="1060" text-anchor="middle" fill="#315277" font-family="Arial,sans-serif" font-size="24" font-weight="700">C · DIGITAL GUIDE</text></svg>